<?xml version="1.0" encoding="UTF-8" standalone="no"?>
<!-- Created with Inkscape (http://www.inkscape.org/) -->

<svg
   version="1.1"
   id="svg2"
   width="264.57333"
   height="106.58667"
   viewBox="0 0 264.57333 106.58667"
   sodipodi:docname="RRZE_Logo-cmyk-100-85-0-0.eps"
   xmlns:inkscape="http://www.inkscape.org/namespaces/inkscape"
   xmlns:sodipodi="http://sodipodi.sourceforge.net/DTD/sodipodi-0.dtd"
   xmlns="http://www.w3.org/2000/svg"
   xmlns:svg="http://www.w3.org/2000/svg">
  <defs
     id="defs6" />
  <sodipodi:namedview
     id="namedview4"
     pagecolor="#ffffff"
     bordercolor="#000000"
     borderopacity="0.25"
     inkscape:showpageshadow="2"
     inkscape:pageopacity="0.0"
     inkscape:pagecheckerboard="0"
     inkscape:deskcolor="#d1d1d1" />
  <g
     id="g8"
     inkscape:groupmode="layer"
     inkscape:label="ink_ext_XXXXXX"
     transform="matrix(1.3333333,0,0,-1.3333333,0,106.58667)">
    <g
       id="g10"
       transform="scale(0.1)">
      <path
         d="M 1982.91,725.266 H -1.98828 v 74.105 H 1982.91 v -74.105"
         style="fill:#CCCCCC;fill-opacity:1;fill-rule:nonzero;stroke:none"
         id="path12" />
      <path
         d="M 67.2031,1.91406 H -1.98828 V 799.367 H 67.2031 V 1.91406"
         style="fill:#CCCCCC;fill-opacity:1;fill-rule:nonzero;stroke:none"
         id="path14" />
      <path
         d="M 1984.25,0.648438 H -1.98828 V 74.7578 H 1984.25 V 0.648438"
         style="fill:#CCCCCC;fill-opacity:1;fill-rule:nonzero;stroke:none"
         id="path16" />
      <path
         d="m 1984.25,1.91406 h -71.88 V 799.367 h 71.88 V 1.91406"
         style="fill:#CCCCCC;fill-opacity:1;fill-rule:nonzero;stroke:none"
         id="path18" />
      <path
         d="M 1911.71,68.4219 H 67.2031 V 725.262 H 1911.71 V 68.4219"
         style="fill:#003399;fill-opacity:1;fill-rule:nonzero;stroke:none"
         id="path20" />
      <path
         d="M 423.551,580.844 H 140.082 v 74.109 h 283.469 v -74.109"
         style="fill:#CCCCCC;fill-opacity:1;fill-rule:nonzero;stroke:none"
         id="path22" />
      <path
         d="M 1205.13,291.066 H 990.402 V 508.32 H 1205.13 V 291.066"
         style="fill:#ffffff;fill-opacity:1;fill-rule:nonzero;stroke:none"
         id="path24" />
      <path
         d="m 210.613,146.961 h -70.531 v 507.988 h 70.531 V 146.961"
         style="fill:#CCCCCC;fill-opacity:1;fill-rule:nonzero;stroke:none"
         id="path26" />
      <path
         d="M 776.703,580.844 H 493.238 v 74.109 h 283.465 v -74.109"
         style="fill:#CCCCCC;fill-opacity:1;fill-rule:nonzero;stroke:none"
         id="path28" />
      <path
         d="M 563.77,146.965 H 493.238 V 654.953 H 563.77 V 146.965"
         style="fill:#CCCCCC;fill-opacity:1;fill-rule:nonzero;stroke:none"
         id="path30" />
      <path
         d="M 1344.71,580.844 H 849.078 v 74.109 h 495.632 v -74.109"
         style="fill:#CCCCCC;fill-opacity:1;fill-rule:nonzero;stroke:none"
         id="path32" />
      <path
         d="M 1346.05,145.266 H 850.422 v 74.109 h 495.628 v -74.109"
         style="fill:#CCCCCC;fill-opacity:1;fill-rule:nonzero;stroke:none"
         id="path34" />
      <path
         d="m 920.953,145.695 h -70.535 v 219.293 h 70.535 V 145.695"
         style="fill:#CCCCCC;fill-opacity:1;fill-rule:nonzero;stroke:none"
         id="path36" />
      <path
         d="m 1346.62,435.66 h -70.54 v 219.289 h 70.54 V 435.66"
         style="fill:#CCCCCC;fill-opacity:1;fill-rule:nonzero;stroke:none"
         id="path38" />
      <path
         d="m 1841.61,581.031 h -424.53 v 73.922 h 424.53 v -73.922"
         style="fill:#CCCCCC;fill-opacity:1;fill-rule:nonzero;stroke:none"
         id="path40" />
      <path
         d="m 1841.61,146.719 h -424.53 v 73.918 h 424.53 v -73.918"
         style="fill:#CCCCCC;fill-opacity:1;fill-rule:nonzero;stroke:none"
         id="path42" />
      <path
         d="m 1841.61,363.238 h -424.53 v 73.922 h 424.53 v -73.922"
         style="fill:#CCCCCC;fill-opacity:1;fill-rule:nonzero;stroke:none"
         id="path44" />
    </g>
  </g>
</svg>
